PathFileType	4	(X/Y/Z)	Patient4_TMGait_0pt7_01_right_32.trc.trc
DataRate	CameraRate	NumFrames	NumMarkers	Units	OrigDataRate	OrigDataStartFrame	OrigNumFrames
84.848484848485	84.848484848485	4	33	mm	84.848484848485	36	       141
Frame#	Time	Sacral			L.Shoulder			Chest			R.Shoulder			Neck			R.ASIS			L.ASIS			R.Thigh.Superior			R.Thigh.Lateral			R.Thigh.Inferior			R.Patella			L.Thigh.Superior			L.Thigh.Lateral			L.Thigh.Inferior			L.Patella			L.Shank.Superior			L.Shank.Lateral			L.Shank.Inferior			R.Shank.Superior			R.Shank.Lateral			R.Shank.Inferior			R.Heel			R.Midfoot.Superior			R.Midfoot.Lateral			R.Toe			L.Heel			L.Midfoot.Lateral			L.Midfoot.Superior			L.Toe			L.Elbow			L.Wrist			R.Elbow			R.Wrist			
		X1	Y1	Z1	X2	Y2	Z2	X3	Y3	Z3	X4	Y4	Z4	X5	Y5	Z5	X6	Y6	Z6	X7	Y7	Z7	X8	Y8	Z8	X9	Y9	Z9	X10	Y10	Z10	X11	Y11	Z11	X12	Y12	Z12	X13	Y13	Z13	X14	Y14	Z14	X15	Y15	Z15	X16	Y16	Z16	X17	Y17	Z17	X18	Y18	Z18	X19	Y19	Z19	X20	Y20	Z20	X21	Y21	Z21	X22	Y22	Z22	X23	Y23	Z23	X24	Y24	Z24	X25	Y25	Z25	X26	Y26	Z26	X27	Y27	Z27	X28	Y28	Z28	X29	Y29	Z29	X30	Y30	Z30	X31	Y31	Z31	X32	Y32	Z32	X33	Y33	Z33	

36	36.782500000000	867.145030522747	996.045790198870	524.801083844819	1092.762378870619	1413.339351479141	349.970773911349	1179.669815805955	1330.584272657505	515.073155361812	1095.608898293851	1415.275017056082	683.353593745457	1099.812536844807	1471.900028316950	504.739802741350	1091.382141205530	924.395128487714	652.164497633427	1084.382626277316	937.309661093952	377.613394315004	1164.824176827503	751.251842152742	620.302603983525	1103.708822257360	630.173982061656	676.949002002309	1191.755211982426	592.605630259312	598.439151108460	1210.330677130388	502.730121373177	604.708595403513	1111.612833159587	720.874059913537	395.515922300419	1018.736246085417	613.070081250145	325.797853521258	1099.103013640288	521.537214352957	382.431470488641	1084.592981710836	436.073769552514	379.063486717649	1010.223097900168	384.548071227964	370.905841303752	867.800889302375	357.596138261402	317.266068369113	838.432891415432	232.459964068642	372.564439601763	1186.217428548634	411.009184924294	610.057491007892	1121.959608593754	302.620239859352	671.510041645263	1169.368983700141	210.725506719960	607.872825104255	1041.180087237463	44.705737744748	578.922934542098	1213.566119608704	97.821286920568	610.765284008058	1126.249646980709	37.663234709981	650.965660241572	1334.479746126218	42.657273599572	636.221806352365	639.650545526313	180.887197768750	401.591757552980	698.519454212395	135.683737977023	322.520632606725	802.065157341093	139.282946869527	348.490916981548	876.704823931872	32.546792942505	319.826249878887	1043.173982865371	1075.461667094674	217.060387177019	1286.366408867093	998.887600528582	244.416682616471	976.363267284431	1086.035631718158	795.004882467579	978.567439891178	823.342297345675	796.023313707619	
37	36.794285714286	866.480538757265	997.924956458078	527.805870231068	1091.706380796002	1414.985915200513	351.623334104491	1179.470063920552	1332.183869389945	516.262907154583	1096.497292548142	1416.944899575766	684.932317183342	1099.602033897329	1473.504669705236	506.404380523249	1091.039166670781	926.199405948956	653.999127987069	1083.788213398559	939.625115120282	379.021368728859	1162.441150826851	750.697129440741	622.911689176330	1099.736591346120	630.595888754375	678.796579174164	1187.079112572197	592.121074302163	599.864949072807	1204.700634943845	502.172871862065	605.859530111556	1116.239023025625	724.897503118627	398.401901194012	1028.361373275201	614.674450803994	327.469235344980	1111.130838144160	525.128719388272	384.995772852451	1098.112115464371	438.475418794085	380.930365216805	1022.341379692172	386.937724783378	372.284956108992	879.268802827478	364.395620042688	317.932074637359	846.027237937985	239.816304490858	372.550315712371	1179.938952219971	410.833215948219	611.147699404641	1115.103233926147	302.698693635434	672.257868823608	1161.955596254237	210.730822077863	608.353111197022	1033.105752233890	44.860036808473	579.079868262208	1205.512524000892	97.953752856967	611.064615169608	1118.133592996884	37.730241914888	651.050903228191	1326.328697646205	42.527656021090	636.541070494985	645.412781743223	195.972731564805	400.117326631334	703.174072056664	148.153514875013	321.493800363525	806.933984351883	146.769808405658	348.457045824093	876.620385284361	34.282912915919	320.220828342951	1039.763092122811	1075.775008872936	222.317942620531	1277.421502460622	980.147043443612	246.659949616111	985.698354146653	1084.950326241491	799.203155093084	999.562144177338	822.535991611850	800.789597549776	
38	36.806071428571	865.620334050359	999.835357545090	530.681414324388	1090.263964974992	1416.562167531411	353.108501352208	1179.054333920970	1333.751938527804	517.251199428182	1097.294880053430	1418.595406719262	686.344545336486	1099.090666502636	1475.092414502839	507.914624311896	1090.457274733528	927.934760001488	655.688460481966	1082.803966967632	941.801208678877	380.341623149586	1159.656414454241	750.094510645078	625.402600316413	1095.356473644437	630.991034103988	680.601322430701	1182.026892705714	591.632646681788	601.302757124391	1198.621146284288	501.643568554507	607.070256429279	1120.502263259714	729.245102209476	401.295751113365	1037.685898566526	616.892485558534	329.022937536058	1122.658745969512	529.409893032357	387.556424089337	1111.371803283275	441.688505391153	382.848020226079	1034.546473072227	389.925789753541	373.593194551197	891.062693582915	371.002324093297	318.516050859289	854.657520859823	246.869646162782	372.447402418896	1173.324630781400	410.673683745522	612.248479138076	1107.952233051546	302.744433251640	672.974049720301	1154.413169856898	210.747156930991	608.836162762978	1024.990834217000	45.024079529529	579.197501680708	1197.478081165258	98.044730181214	611.328466585085	1109.974044428582	37.773258855909	651.097373990830	1318.146184737258	42.300728832915	636.812923697001	652.739434361725	209.184550719362	398.630800983752	709.662757075766	159.405413428748	320.374353645790	813.431672966659	154.043255186961	348.240857594214	879.094894700518	36.886434965368	320.267744867121	1036.666449648815	1076.044772726737	227.204938580247	1266.849157597170	961.038526258450	248.586635272770	995.023989684215	1084.205398339303	803.337960616590	1021.165413724242	822.618899046719	805.482348115720	
39	36.817857142857	864.570360669621	1001.732450835576	533.398675038281	1088.495836779065	1418.023500220329	354.424290691305	1178.430725250956	1335.255368087957	518.054743085627	1097.983706551732	1420.216335521644	687.591327557412	1098.316392047104	1476.638144683824	509.255249347262	1089.644024289946	929.578240467553	657.289394378295	1081.401257564461	943.780819192023	381.662036199815	1156.587019509501	749.525540104683	627.743968120910	1090.694201527942	631.372764415486	682.328046749408	1176.748947507282	591.169371158548	602.743381616776	1192.256035437598	501.159200066784	608.304818042697	1124.351729891772	733.886967977338	404.179466383133	1046.601465178145	619.709261565847	330.446093522630	1133.603728910160	534.348397349404	390.027637053857	1124.290643949015	445.687333964364	384.695403518938	1046.774071131466	393.468117680325	374.757557845743	903.060727038137	377.234090534099	319.020835005358	864.355411023417	253.360879347496	372.249862621943	1166.511543534178	410.537807928861	613.331280660626	1100.618763783256	302.788486644954	673.657244966819	1146.800734934110	210.776128773694	609.311408072314	1016.831759280777	45.204173209851	579.288124964687	1189.456701056226	98.106469028479	611.554566685109	1101.771456407178	37.806755328532	651.118731973671	1309.933494910591	41.999794163798	637.040813345260	661.611786274396	220.010506787949	397.235816706465	717.990827584752	168.994914209111	319.211540437521	821.652355429399	160.776725754483	347.808873413014	884.397810028942	40.210749624922	319.867849507182	1033.821551418407	1076.220333122646	231.725274626755	1254.503630262134	941.878028750446	250.156286690732	1004.359186127094	1083.768219914739	807.368534368098	1043.302268837695	823.662027235902	809.982100566353	
